<svg xmlns="http://www.w3.org/2000/svg" xmlns:xlink="http://www.w3.org/1999/xlink" width="542.32" height="105.771" viewBox="0 0 542.32 105.771">
  <defs>
    <linearGradient id="linear-gradient" x1="0.5" x2="0.5" y2="1" gradientUnits="objectBoundingBox">
      <stop offset="0" stop-color="#eb620f"/>
      <stop offset="1" stop-color="#eb620f" stop-opacity="0"/>
    </linearGradient>
  </defs>
  <g id="Grupo_1625" data-name="Grupo 1625" transform="translate(-1238 -2318.921)">
    <path id="Caminho_8650" data-name="Caminho 8650" d="M-252.792.576c5.856,0,10.7-2.112,13.872-6l-4.992-4.608a10.708,10.708,0,0,1-8.448,3.984A10.308,10.308,0,0,1-263.112-16.8,10.308,10.308,0,0,1-252.36-27.552a10.81,10.81,0,0,1,8.448,3.936l4.992-4.608c-3.168-3.84-8.016-5.952-13.824-5.952-10.464,0-18.24,7.248-18.24,17.376S-263.208.576-252.792.576ZM-222.84.384c8.208,0,14.16-5.52,14.16-13.3s-5.952-13.3-14.16-13.3-14.208,5.52-14.208,13.3S-231.048.384-222.84.384Zm0-6.144c-3.744,0-6.624-2.688-6.624-7.152s2.88-7.152,6.624-7.152,6.576,2.688,6.576,7.152S-219.1-5.76-222.84-5.76Zm52.224-20.448a11.612,11.612,0,0,0-9.312,4.224c-1.824-2.832-4.9-4.224-8.5-4.224a10.459,10.459,0,0,0-8.112,3.36v-2.976h-7.152V0h7.488V-12.96c0-4.608,2.352-6.768,5.664-6.768,3.12,0,4.9,1.92,4.9,6.1V0h7.488V-12.96c0-4.608,2.352-6.768,5.712-6.768,3.024,0,4.9,1.92,4.9,6.1V0h7.488V-14.784C-160.056-22.656-164.472-26.208-170.616-26.208ZM-140.76.384c8.208,0,14.16-5.52,14.16-13.3s-5.952-13.3-14.16-13.3-14.208,5.52-14.208,13.3S-148.968.384-140.76.384Zm0-6.144c-3.744,0-6.624-2.688-6.624-7.152s2.88-7.152,6.624-7.152,6.576,2.688,6.576,7.152S-137.016-5.76-140.76-5.76Zm39.888-16.656v-3.408h-7.152V0h7.488V-12.192c0-4.944,2.736-7.2,6.864-7.2.576,0,1.056.048,1.68.1v-6.912C-95.976-26.208-99.048-24.912-100.872-22.416Zm38.4,9.6c0-8.3-5.856-13.392-13.44-13.392-7.872,0-13.776,5.568-13.776,13.3,0,7.68,5.808,13.3,14.736,13.3C-70.3.384-66.7-1.056-64.3-3.792l-3.984-4.32a8.754,8.754,0,0,1-6.48,2.5c-3.936,0-6.672-1.968-7.392-5.184h19.536C-62.568-11.424-62.472-12.24-62.472-12.816Zm-13.392-7.728a6.136,6.136,0,0,1,6.336,5.376h-12.72A6.114,6.114,0,0,1-75.864-20.544ZM-48.792.384C-41.064.384-36.6-3.024-36.6-7.824c0-10.176-15.6-5.9-15.6-10.32,0-1.344,1.44-2.4,4.8-2.4a14.83,14.83,0,0,1,7.44,1.92l2.5-5.328A21.235,21.235,0,0,0-47.4-26.208c-7.536,0-11.952,3.456-11.952,8.352,0,10.32,15.6,6,15.6,10.224,0,1.44-1.3,2.352-4.752,2.352a17.668,17.668,0,0,1-8.976-2.5l-2.5,5.376C-57.576-.816-53.16.384-48.792.384Zm35.328-26.208v12.768c0,4.752-2.5,6.96-5.952,6.96-3.312,0-5.232-1.92-5.232-6.24V-25.824h-7.488v14.592c0,7.968,4.56,11.616,11.04,11.616A10.448,10.448,0,0,0-13.08-3.072V0h7.1V-25.824ZM.984,0H8.472V-35.616H.984Zm30.96-6.528a5.047,5.047,0,0,1-3.024.96c-2.016,0-3.216-1.2-3.216-3.408V-19.488h6.432v-5.76H25.7v-6.288H18.216v6.288H14.232v5.76h3.984V-8.88c0,6.144,3.552,9.264,9.648,9.264a10.7,10.7,0,0,0,6.1-1.632ZM48.6-26.208a19.851,19.851,0,0,0-11.136,3.12l2.688,5.232a12.417,12.417,0,0,1,7.44-2.4c4.032,0,5.952,1.872,5.952,5.088H47.592C39.72-15.168,36.5-12,36.5-7.44c0,4.464,3.6,7.824,9.648,7.824,3.792,0,6.48-1.248,7.872-3.6V0h7.008V-14.736C61.032-22.56,56.472-26.208,48.6-26.208ZM48.024-4.656c-2.64,0-4.224-1.248-4.224-3.12,0-1.728,1.1-3.024,4.608-3.024h5.136v2.64A5.517,5.517,0,0,1,48.024-4.656ZM86.9-35.616v12.528a9.921,9.921,0,0,0-7.728-3.12c-7.3,0-12.912,5.184-12.912,13.3S71.88.384,79.176.384c3.456,0,6.192-1.1,8.064-3.36V0h7.152V-35.616ZM80.472-5.76c-3.744,0-6.624-2.688-6.624-7.152s2.88-7.152,6.624-7.152c3.7,0,6.576,2.688,6.576,7.152S84.168-5.76,80.472-5.76ZM113.592.384c8.208,0,14.16-5.52,14.16-13.3s-5.952-13.3-14.16-13.3-14.208,5.52-14.208,13.3S105.384.384,113.592.384Zm0-6.144c-3.744,0-6.624-2.688-6.624-7.152s2.88-7.152,6.624-7.152,6.576,2.688,6.576,7.152S117.336-5.76,113.592-5.76Zm21.7-3.168a4.448,4.448,0,0,0-4.656,4.608,4.165,4.165,0,0,0,2.592,4.08l-2.112,7.632h4.752L138.6.48c1.1-2.64,1.3-3.552,1.3-4.8A4.41,4.41,0,0,0,135.288-8.928ZM177-25.824,169.608-8.256l-7.152-17.568h-7.728L165.576,0H173.3l10.9-25.824ZM198.84.384c8.208,0,14.16-5.52,14.16-13.3s-5.952-13.3-14.16-13.3-14.208,5.52-14.208,13.3S190.632.384,198.84.384Zm0-6.144c-3.744,0-6.624-2.688-6.624-7.152s2.88-7.152,6.624-7.152,6.576,2.688,6.576,7.152S202.584-5.76,198.84-5.76ZM230.472.384c5.424,0,9.7-2.4,11.568-6.528l-5.808-3.168a6.353,6.353,0,0,1-5.808,3.552c-3.792,0-6.768-2.64-6.768-7.152s2.976-7.152,6.768-7.152a6.439,6.439,0,0,1,5.808,3.552l5.808-3.12c-1.872-4.224-6.144-6.576-11.568-6.576-8.4,0-14.4,5.52-14.4,13.3S222.072.384,230.472.384Zm27.264-33.168,4.176,3.648h5.472l-6.336-6.912h-6.624l-6.336,6.912h5.472ZM271.32-12.816c0-8.3-5.856-13.392-13.44-13.392-7.872,0-13.776,5.568-13.776,13.3,0,7.68,5.808,13.3,14.736,13.3,4.656,0,8.256-1.44,10.656-4.176l-3.984-4.32a8.754,8.754,0,0,1-6.48,2.5c-3.936,0-6.672-1.968-7.392-5.184h19.536C271.224-11.424,271.32-12.24,271.32-12.816Zm-13.392-7.728a6.136,6.136,0,0,1,6.336,5.376h-12.72A6.114,6.114,0,0,1,257.928-20.544ZM-165.24,47.472a5.047,5.047,0,0,1-3.024.96c-2.016,0-3.216-1.2-3.216-3.408V34.512h6.432v-5.76h-6.432V22.464h-7.488v6.288h-3.984v5.76h3.984V45.12c0,6.144,3.552,9.264,9.648,9.264a10.7,10.7,0,0,0,6.1-1.632Zm30.72-6.288c0-8.3-5.856-13.392-13.44-13.392-7.872,0-13.776,5.568-13.776,13.3,0,7.68,5.808,13.3,14.736,13.3,4.656,0,8.256-1.44,10.656-4.176l-3.984-4.32a8.754,8.754,0,0,1-6.48,2.5c-3.936,0-6.672-1.968-7.392-5.184h19.536C-134.616,42.576-134.52,41.76-134.52,41.184Zm-13.392-7.728a6.136,6.136,0,0,1,6.336,5.376H-154.3A6.114,6.114,0,0,1-147.912,33.456Zm25.536-1.872V28.176h-7.152V54h7.488V41.808c0-4.944,2.736-7.2,6.864-7.2.576,0,1.056.048,1.68.1V27.792C-117.48,27.792-120.552,29.088-122.376,31.584Zm34.56-13.632H-95.88l-6.48,6.912H-96.5Zm-10.944,9.84a19.851,19.851,0,0,0-11.136,3.12l2.688,5.232a12.417,12.417,0,0,1,7.44-2.4c4.032,0,5.952,1.872,5.952,5.088h-5.952c-7.872,0-11.088,3.168-11.088,7.728,0,4.464,3.6,7.824,9.648,7.824,3.792,0,6.48-1.248,7.872-3.6V54h7.008V39.264C-86.328,31.44-90.888,27.792-98.76,27.792Zm-.576,21.552c-2.64,0-4.224-1.248-4.224-3.12,0-1.728,1.1-3.024,4.608-3.024h5.136v2.64A5.517,5.517,0,0,1-99.336,49.344ZM-50.28,27.792A11.306,11.306,0,0,0-58.824,31.2V28.176h-7.152V54h7.488V41.232c0-4.752,2.592-6.96,6.192-6.96,3.312,0,5.232,1.92,5.232,6.1V54h7.488V39.216C-39.576,31.344-44.184,27.792-50.28,27.792Zm27.888,0a19.851,19.851,0,0,0-11.136,3.12l2.688,5.232a12.417,12.417,0,0,1,7.44-2.4c4.032,0,5.952,1.872,5.952,5.088H-23.4c-7.872,0-11.088,3.168-11.088,7.728,0,4.464,3.6,7.824,9.648,7.824,3.792,0,6.48-1.248,7.872-3.6V54H-9.96V39.264C-9.96,31.44-14.52,27.792-22.392,27.792Zm-.576,21.552c-2.64,0-4.224-1.248-4.224-3.12,0-1.728,1.1-3.024,4.608-3.024h5.136v2.64A5.517,5.517,0,0,1-22.968,49.344ZM25.656,27.792c-3.456,0-6.24,1.1-8.112,3.36V28.176H10.392V63.312H17.88V51.264a10.026,10.026,0,0,0,7.776,3.12c7.248,0,12.864-5.184,12.864-13.3S32.9,27.792,25.656,27.792ZM24.36,48.24c-3.744,0-6.576-2.688-6.576-7.152s2.832-7.152,6.576-7.152,6.576,2.688,6.576,7.152S28.1,48.24,24.36,48.24Zm26.3-16.656V28.176H43.512V54H51V41.808c0-4.944,2.736-7.2,6.864-7.2.576,0,1.056.048,1.68.1V27.792C55.56,27.792,52.488,29.088,50.664,31.584Zm34.56-13.632H77.16l-6.48,6.912h5.856ZM74.28,27.792a19.851,19.851,0,0,0-11.136,3.12l2.688,5.232a12.417,12.417,0,0,1,7.44-2.4c4.032,0,5.952,1.872,5.952,5.088H73.272C65.4,38.832,62.184,42,62.184,46.56c0,4.464,3.6,7.824,9.648,7.824,3.792,0,6.48-1.248,7.872-3.6V54h7.008V39.264C86.712,31.44,82.152,27.792,74.28,27.792ZM73.7,49.344c-2.64,0-4.224-1.248-4.224-3.12,0-1.728,1.1-3.024,4.608-3.024h5.136v2.64A5.517,5.517,0,0,1,73.7,49.344Zm34.416-1.872a5.047,5.047,0,0,1-3.024.96c-2.016,0-3.216-1.2-3.216-3.408V34.512h6.432v-5.76H101.88V22.464H94.392v6.288H90.408v5.76h3.984V45.12c0,6.144,3.552,9.264,9.648,9.264a10.7,10.7,0,0,0,6.1-1.632Zm9.984-22.9c2.784,0,4.656-1.824,4.656-4.32,0-2.3-1.872-4.032-4.656-4.032s-4.656,1.824-4.656,4.176S115.32,24.576,118.1,24.576ZM114.36,54h7.488V28.176H114.36Zm26.928.384c5.424,0,9.7-2.4,11.568-6.528l-5.808-3.168a6.353,6.353,0,0,1-5.808,3.552c-3.792,0-6.768-2.64-6.768-7.152s2.976-7.152,6.768-7.152a6.439,6.439,0,0,1,5.808,3.552l5.808-3.12c-1.872-4.224-6.144-6.576-11.568-6.576-8.4,0-14.4,5.52-14.4,13.3S132.888,54.384,141.288,54.384Zm26.3-26.592a19.851,19.851,0,0,0-11.136,3.12l2.688,5.232a12.417,12.417,0,0,1,7.44-2.4c4.032,0,5.952,1.872,5.952,5.088h-5.952c-7.872,0-11.088,3.168-11.088,7.728,0,4.464,3.6,7.824,9.648,7.824,3.792,0,6.48-1.248,7.872-3.6V54h7.008V39.264C180.024,31.44,175.464,27.792,167.592,27.792Zm-.576,21.552c-2.64,0-4.224-1.248-4.224-3.12,0-1.728,1.1-3.024,4.608-3.024h5.136v2.64A5.517,5.517,0,0,1,167.016,49.344Z" transform="translate(1509 2354.969)" opacity="0.15" fill="url(#linear-gradient)"/>
    <text id="Como_resultado_você_terá_na_prática" data-name="Como resultado, você terá na prática" transform="translate(1238 2330.692)" font-size="40" font-family="Montserrat-Bold, Montserrat" font-weight="700"><tspan x="-227.38" y="39">Como resultado, você </tspan><tspan x="-152.78" y="84">terá na prática</tspan></text>
  </g>
</svg>
