<svg xmlns="http://www.w3.org/2000/svg" xmlns:xlink="http://www.w3.org/1999/xlink" width="721.224" height="112.099" viewBox="0 0 721.224 112.099">
  <defs>
    <linearGradient id="linear-gradient" x1="0.5" x2="0.5" y2="1" gradientUnits="objectBoundingBox">
      <stop offset="0" stop-color="#eb620f"/>
      <stop offset="1" stop-color="#eb620f" stop-opacity="0"/>
    </linearGradient>
  </defs>
  <g id="Grupo_1613" data-name="Grupo 1613" transform="translate(-258.388 -1282.822)">
    <path id="Caminho_8644" data-name="Caminho 8644" d="M-304.194.636c10.6,0,15.741-5.3,15.741-11.5,0-13.621-21.571-8.9-21.571-15.741,0-2.332,1.961-4.24,7.049-4.24a20.954,20.954,0,0,1,10.282,2.915l2.65-6.519a24.887,24.887,0,0,0-12.879-3.286c-10.547,0-15.635,5.247-15.635,11.554,0,13.78,21.571,9.01,21.571,15.953,0,2.279-2.067,3.975-7.155,3.975a21.822,21.822,0,0,1-12.243-3.869L-319.3-3.657C-316.013-1.113-310.077.636-304.194.636Zm32.542-29.574c-4.558,0-9.169,1.219-12.3,3.445l2.968,5.777a13.71,13.71,0,0,1,8.215-2.65c4.452,0,6.572,2.067,6.572,5.618h-6.572c-8.692,0-12.243,3.5-12.243,8.533,0,4.929,3.975,8.639,10.653,8.639,4.187,0,7.155-1.378,8.692-3.975V0h7.738V-16.271C-257.925-24.91-262.96-28.938-271.652-28.938Zm-.636,23.8c-2.915,0-4.664-1.378-4.664-3.445,0-1.908,1.219-3.339,5.088-3.339h5.671V-9.01C-267.147-6.413-269.532-5.141-272.288-5.141Zm38.69-23.8a11.07,11.07,0,0,0-8.586,3.445V-39.326h-8.268V0h7.9V-3.286C-240.488-.8-237.414.424-233.6.424c8,0,14.2-5.724,14.2-14.681S-225.595-28.938-233.6-28.938ZM-235.029-6.36c-4.134,0-7.261-2.968-7.261-7.9s3.127-7.9,7.261-7.9,7.261,2.968,7.261,7.9S-230.895-6.36-235.029-6.36Zm49.078-7.791c0-9.169-6.466-14.787-14.84-14.787-8.692,0-15.211,6.148-15.211,14.681,0,8.48,6.413,14.681,16.271,14.681,5.141,0,9.116-1.59,11.766-4.611l-4.4-4.77A9.666,9.666,0,0,1-199.519-6.2c-4.346,0-7.367-2.173-8.162-5.724h21.571C-186.057-12.614-185.951-13.515-185.951-14.151Zm-14.787-8.533a6.776,6.776,0,0,1,7,5.936h-14.045A6.75,6.75,0,0,1-200.738-22.684Zm52.152-6.254c-3.816,0-6.89,1.219-8.957,3.71v-3.286h-7.9v38.8h8.268v-13.3A11.07,11.07,0,0,0-148.586.424c8,0,14.2-5.724,14.2-14.681S-140.583-28.938-148.586-28.938ZM-150.017-6.36c-4.134,0-7.261-2.968-7.261-7.9s3.127-7.9,7.261-7.9,7.261,2.968,7.261,7.9S-145.883-6.36-150.017-6.36ZM-115.3.424c9.063,0,15.635-6.1,15.635-14.681s-6.572-14.681-15.635-14.681-15.688,6.095-15.688,14.681S-124.365.424-115.3.424Zm0-6.784c-4.134,0-7.314-2.968-7.314-7.9s3.18-7.9,7.314-7.9,7.261,2.968,7.261,7.9S-111.168-6.36-115.3-6.36Zm29.044-18.391v-3.763h-7.9V0h8.268V-13.462c0-5.459,3.021-7.95,7.579-7.95.636,0,1.166.053,1.855.106v-7.632C-80.852-28.938-84.244-27.507-86.258-24.751Zm50.986-3.763v3.286c-2.067-2.491-5.088-3.71-8.9-3.71-8.056,0-14.257,5.724-14.257,14.681S-52.232.424-44.176.424a10.954,10.954,0,0,0,8.533-3.445v13.3h8.268v-38.8ZM-42.745-6.36c-4.134,0-7.314-2.968-7.314-7.9s3.18-7.9,7.314-7.9c4.081,0,7.261,2.968,7.261,7.9S-38.664-6.36-42.745-6.36ZM.715-28.514v14.1c0,5.247-2.756,7.685-6.572,7.685-3.657,0-5.777-2.12-5.777-6.89V-28.514H-19.9V-12.4C-19.9-3.6-14.867.424-7.712.424A11.536,11.536,0,0,0,1.139-3.392V0H8.983V-28.514ZM44.6-14.151c0-9.169-6.466-14.787-14.84-14.787-8.692,0-15.211,6.148-15.211,14.681,0,8.48,6.413,14.681,16.271,14.681,5.141,0,9.116-1.59,11.766-4.611l-4.4-4.77A9.666,9.666,0,0,1,31.031-6.2c-4.346,0-7.367-2.173-8.162-5.724H44.44C44.493-12.614,44.6-13.515,44.6-14.151ZM29.812-22.684a6.776,6.776,0,0,1,7,5.936H22.763A6.75,6.75,0,0,1,29.812-22.684ZM65.693,0H82.547c12.137,0,20.458-7.314,20.458-18.55S94.684-37.1,82.547-37.1H65.693Zm8.586-7.049v-23h7.844c7.367,0,12.19,4.4,12.19,11.5s-4.823,11.5-12.19,11.5Zm62.54-7.1c0-9.169-6.466-14.787-14.84-14.787-8.692,0-15.211,6.148-15.211,14.681,0,8.48,6.413,14.681,16.271,14.681,5.141,0,9.116-1.59,11.766-4.611l-4.4-4.77A9.666,9.666,0,0,1,123.251-6.2c-4.346,0-7.367-2.173-8.162-5.724H136.66C136.713-12.614,136.819-13.515,136.819-14.151Zm-14.787-8.533a6.776,6.776,0,0,1,7,5.936H114.983A6.75,6.75,0,0,1,122.032-22.684ZM169.043,0,158.019-14.575l10.6-13.939h-8.8l-6.2,8.321-6.042-8.321H138.3l10.6,14.151L137.932,0h9.01l6.466-8.745L159.662,0ZM200.1-14.151c0-9.169-6.466-14.787-14.84-14.787-8.692,0-15.211,6.148-15.211,14.681,0,8.48,6.413,14.681,16.271,14.681,5.141,0,9.116-1.59,11.766-4.611l-4.4-4.77A9.666,9.666,0,0,1,186.533-6.2c-4.346,0-7.367-2.173-8.162-5.724h21.571C200-12.614,200.1-13.515,200.1-14.151Zm-14.787-8.533a6.776,6.776,0,0,1,7,5.936H178.265A6.75,6.75,0,0,1,185.314-22.684Zm28.2-2.067v-3.763h-7.9V0h8.268V-13.462c0-5.459,3.021-7.95,7.579-7.95.636,0,1.166.053,1.855.106v-7.632C218.916-28.938,215.524-27.507,213.51-24.751ZM267.624-39.8h-8.9l-7.155,7.632h6.466Zm3.763,25.652c0-9.169-6.466-14.787-14.84-14.787-8.692,0-15.211,6.148-15.211,14.681,0,8.48,6.413,14.681,16.271,14.681,5.141,0,9.116-1.59,11.766-4.611l-4.4-4.77A9.666,9.666,0,0,1,257.819-6.2c-4.346,0-7.367-2.173-8.162-5.724h21.571C271.281-12.614,271.387-13.515,271.387-14.151ZM256.6-22.684a6.776,6.776,0,0,1,7,5.936H249.551A6.75,6.75,0,0,1,256.6-22.684Zm46.8-6.254c-4.558,0-9.169,1.219-12.3,3.445l2.968,5.777a13.71,13.71,0,0,1,8.215-2.65c4.452,0,6.572,2.067,6.572,5.618h-6.572c-8.692,0-12.243,3.5-12.243,8.533,0,4.929,3.975,8.639,10.653,8.639,4.187,0,7.155-1.378,8.692-3.975V0h7.738V-16.271C317.126-24.91,312.091-28.938,303.4-28.938Zm-.636,23.8c-2.915,0-4.664-1.378-4.664-3.445,0-1.908,1.219-3.339,5.088-3.339h5.671V-9.01C307.9-6.413,305.519-5.141,302.763-5.141Zm-651.9,65.565c8.533,0,13.462-3.763,13.462-9.063,0-11.236-17.225-6.519-17.225-11.4,0-1.484,1.59-2.65,5.3-2.65a16.375,16.375,0,0,1,8.215,2.12l2.756-5.883c-2.7-1.59-7.049-2.491-10.971-2.491-8.321,0-13.2,3.816-13.2,9.222,0,11.4,17.225,6.625,17.225,11.289,0,1.59-1.431,2.6-5.247,2.6a19.508,19.508,0,0,1-9.911-2.756l-2.756,5.936C-358.836,59.1-353.96,60.424-349.137,60.424Zm32.118,0c9.063,0,15.635-6.1,15.635-14.681s-6.572-14.681-15.635-14.681-15.688,6.095-15.688,14.681S-326.082,60.424-317.019,60.424Zm0-6.784c-4.134,0-7.314-2.968-7.314-7.9s3.18-7.9,7.314-7.9,7.261,2.968,7.261,7.9S-312.885,53.64-317.019,53.64ZM-295.872,60h8.268V20.674h-8.268Zm36.411-28.514v14.1c0,5.247-2.756,7.685-6.572,7.685-3.657,0-5.777-2.12-5.777-6.89V31.486h-8.268V47.6c0,8.8,5.035,12.826,12.19,12.826a11.536,11.536,0,0,0,8.851-3.816V60h7.844V31.486Zm29.68,22.154c-4.187,0-7.473-2.915-7.473-7.9s3.286-7.9,7.473-7.9a7.11,7.11,0,0,1,6.413,3.922l6.413-3.445c-2.067-4.664-6.784-7.261-12.773-7.261-9.275,0-15.9,6.095-15.9,14.681,0,7.42,4.929,12.985,12.3,14.363l-1.272,5.088h1.8c1.855,0,2.6.636,2.6,1.537,0,1.007-.795,1.7-2.756,1.7a8.036,8.036,0,0,1-3.445-.795l-1.272,3.551a10.583,10.583,0,0,0,4.929,1.113c4.717,0,7.791-2.014,7.791-5.247,0-2.173-1.378-4.028-4.611-4.4l.53-2.226c5.671-.212,10.123-2.809,12.084-7.208l-6.413-3.5A7.015,7.015,0,0,1-229.781,53.64Zm26.5-28.991c1.908,0,3.763,3.339,7.42,3.339,3.71,0,6.1-3.021,6.2-7.579h-4.187c-.106,1.749-1.113,2.862-2.544,2.862-1.908,0-3.763-3.392-7.42-3.392-3.71,0-6.1,3.021-6.2,7.738h4.187C-205.719,25.709-204.712,24.649-203.281,24.649Zm2.6,6.413c-4.558,0-9.169,1.219-12.3,3.445l2.968,5.777a13.71,13.71,0,0,1,8.215-2.65c4.452,0,6.572,2.067,6.572,5.618H-201.8c-8.692,0-12.243,3.5-12.243,8.533,0,4.929,3.975,8.639,10.653,8.639,4.187,0,7.155-1.378,8.692-3.975V60h7.738V43.729C-186.957,35.09-191.992,31.062-200.684,31.062Zm-.636,23.8c-2.915,0-4.664-1.378-4.664-3.445,0-1.908,1.219-3.339,5.088-3.339h5.671V50.99C-196.179,53.587-198.564,54.859-201.32,54.859Zm35.722,5.565c9.063,0,15.635-6.1,15.635-14.681s-6.572-14.681-15.635-14.681-15.688,6.095-15.688,14.681S-174.661,60.424-165.6,60.424Zm0-6.784c-4.134,0-7.314-2.968-7.314-7.9s3.18-7.9,7.314-7.9,7.261,2.968,7.261,7.9S-161.464,53.64-165.6,53.64Zm57.187-22.154v3.286c-2.067-2.491-5.088-3.71-8.9-3.71-8.056,0-14.257,5.724-14.257,14.681s6.2,14.681,14.257,14.681a10.954,10.954,0,0,0,8.533-3.445v13.3h8.268v-38.8Zm-7.473,22.154c-4.134,0-7.314-2.968-7.314-7.9s3.18-7.9,7.314-7.9c4.081,0,7.261,2.968,7.261,7.9S-111.8,53.64-115.884,53.64Zm43.46-22.154v14.1c0,5.247-2.756,7.685-6.572,7.685-3.657,0-5.777-2.12-5.777-6.89V31.486h-8.268V47.6c0,8.8,5.035,12.826,12.19,12.826A11.536,11.536,0,0,0-72,56.608V60h7.844V31.486ZM-28.54,45.849c0-9.169-6.466-14.787-14.84-14.787-8.692,0-15.211,6.148-15.211,14.681,0,8.48,6.413,14.681,16.271,14.681,5.141,0,9.116-1.59,11.766-4.611l-4.4-4.77A9.666,9.666,0,0,1-42.108,53.8c-4.346,0-7.367-2.173-8.162-5.724H-28.7C-28.646,47.386-28.54,46.485-28.54,45.849Zm-14.787-8.533a6.776,6.776,0,0,1,7,5.936H-50.376A6.75,6.75,0,0,1-43.327,37.316Zm55.65-5.83-8.162,19.4-7.9-19.4h-8.533L-.291,60H8.242L20.273,31.486ZM36.438,60.424c9.063,0,15.635-6.1,15.635-14.681S45.5,31.062,36.438,31.062,20.749,37.157,20.749,45.743,27.374,60.424,36.438,60.424Zm0-6.784c-4.134,0-7.314-2.968-7.314-7.9s3.18-7.9,7.314-7.9,7.261,2.968,7.261,7.9S40.571,53.64,36.438,53.64Zm34.927,6.784c5.989,0,10.706-2.65,12.773-7.208l-6.413-3.5a7.015,7.015,0,0,1-6.413,3.922c-4.187,0-7.473-2.915-7.473-7.9s3.286-7.9,7.473-7.9a7.11,7.11,0,0,1,6.413,3.922l6.413-3.445c-2.067-4.664-6.784-7.261-12.773-7.261-9.275,0-15.9,6.095-15.9,14.681S62.089,60.424,71.364,60.424Zm30.1-36.623,4.611,4.028h6.042l-7-7.632H97.811l-7,7.632h6.042Zm15,22.048c0-9.169-6.466-14.787-14.84-14.787-8.692,0-15.211,6.148-15.211,14.681,0,8.48,6.413,14.681,16.271,14.681,5.141,0,9.116-1.59,11.766-4.611l-4.4-4.77A9.666,9.666,0,0,1,102.9,53.8c-4.346,0-7.367-2.173-8.162-5.724h21.571C116.361,47.386,116.467,46.485,116.467,45.849ZM101.68,37.316a6.776,6.776,0,0,1,7,5.936H94.631A6.75,6.75,0,0,1,101.68,37.316Zm52.152-6.254c-3.816,0-6.89,1.219-8.957,3.71V31.486h-7.9v38.8h8.268v-13.3a11.07,11.07,0,0,0,8.586,3.445c8,0,14.2-5.724,14.2-14.681S161.835,31.062,153.832,31.062ZM152.4,53.64c-4.134,0-7.261-2.968-7.261-7.9s3.127-7.9,7.261-7.9,7.261,2.968,7.261,7.9S156.535,53.64,152.4,53.64Zm29.044-18.391V31.486h-7.9V60h8.268V46.538c0-5.459,3.021-7.95,7.579-7.95.636,0,1.166.053,1.855.106V31.062C186.851,31.062,183.459,32.493,181.445,35.249Zm42.4,10.6c0-9.169-6.466-14.787-14.84-14.787-8.692,0-15.211,6.148-15.211,14.681,0,8.48,6.413,14.681,16.271,14.681,5.141,0,9.116-1.59,11.766-4.611l-4.4-4.77a9.666,9.666,0,0,1-7.155,2.756c-4.346,0-7.367-2.173-8.162-5.724h21.571C223.739,47.386,223.845,46.485,223.845,45.849Zm-14.787-8.533a6.776,6.776,0,0,1,7,5.936H202.009A6.75,6.75,0,0,1,209.058,37.316Zm34.079,23.108c5.989,0,10.706-2.65,12.773-7.208l-6.413-3.5a7.015,7.015,0,0,1-6.413,3.922c-4.187,0-7.473-2.915-7.473-7.9s3.286-7.9,7.473-7.9a7.11,7.11,0,0,1,6.413,3.922l6.413-3.445c-2.067-4.664-6.784-7.261-12.773-7.261-9.275,0-15.9,6.095-15.9,14.681S233.862,60.424,243.137,60.424Zm21.677-32.913c3.074,0,5.141-2.014,5.141-4.77,0-2.544-2.067-4.452-5.141-4.452s-5.141,2.014-5.141,4.611S261.74,27.511,264.814,27.511ZM260.68,60h8.268V31.486H260.68Zm25.546.424c8.533,0,13.462-3.763,13.462-9.063,0-11.236-17.225-6.519-17.225-11.4,0-1.484,1.59-2.65,5.3-2.65a16.375,16.375,0,0,1,8.215,2.12l2.756-5.883c-2.7-1.59-7.049-2.491-10.971-2.491-8.321,0-13.2,3.816-13.2,9.222,0,11.4,17.225,6.625,17.225,11.289,0,1.59-1.431,2.6-5.247,2.6a19.508,19.508,0,0,1-9.911-2.756l-2.756,5.936C276.527,59.1,281.4,60.424,286.226,60.424Zm30.051-29.362c-4.558,0-9.169,1.219-12.3,3.445l2.968,5.777a13.71,13.71,0,0,1,8.215-2.65c4.452,0,6.572,2.067,6.572,5.618h-6.572c-8.692,0-12.243,3.5-12.243,8.533,0,4.929,3.975,8.639,10.653,8.639,4.187,0,7.155-1.378,8.692-3.975V60H330V43.729C330,35.09,324.969,31.062,316.277,31.062Zm-.636,23.8c-2.915,0-4.664-1.378-4.664-3.445,0-1.908,1.219-3.339,5.088-3.339h5.671V50.99C320.782,53.587,318.4,54.859,315.641,54.859Zm27.189-7.738h8c0-5.618,8.9-6.572,8.9-15.052,0-6.254-5.512-9.805-13.462-9.805-7.155,0-12.137,2.756-15,7.1l6.413,3.763a8.976,8.976,0,0,1,7.685-3.922c3.445,0,5.724,1.643,5.724,4.24C351.1,38.058,342.831,39.7,342.831,47.121Zm4.028,13.3a4.872,4.872,0,0,0,5.088-4.823,5.1,5.1,0,0,0-10.176,0A4.872,4.872,0,0,0,346.858,60.424Z" transform="translate(619.875 1322.625)" opacity="0.15" fill="url(#linear-gradient)"/>
    <text id="Sabe_por_que_Dexer_é_a_solução_que_você_precisa_" data-name="Sabe por que Dexer é a
solução que você precisa?" transform="translate(619.875 1335.625)" font-size="40" font-family="Montserrat-Bold, Montserrat" font-weight="700"><tspan x="-242.1" y="0">Sabe por que Dexer é a</tspan><tspan x="-273.62" y="45">solução que você precisa?</tspan></text>
  </g>
</svg>
