<svg xmlns="http://www.w3.org/2000/svg" xmlns:xlink="http://www.w3.org/1999/xlink" width="634.916" height="86.141" viewBox="0 0 634.916 86.141">
  <defs>
    <linearGradient id="linear-gradient" x1="0.5" x2="0.5" y2="1" gradientUnits="objectBoundingBox">
      <stop offset="0" stop-color="#fff"/>
      <stop offset="1" stop-color="#fff" stop-opacity="0"/>
    </linearGradient>
  </defs>
  <g id="Grupo_1626" data-name="Grupo 1626" transform="translate(-237 -3491.484)">
    <path id="Caminho_8667" data-name="Caminho 8667" d="M-268.362-.748a10.336,10.336,0,0,1-7.752,3.536c-2.38,0-4.42-.884-6.732-3.332a23.957,23.957,0,0,0,17-23.256c0-14.212-11.084-24.616-26.044-24.616-15.028,0-26.044,10.472-26.044,24.616,0,12.92,9.18,22.78,22.236,24.412,7.344,7.752,12.308,10.336,19.38,10.336A16.125,16.125,0,0,0-263.466,5.1ZM-306.782-23.8c0-9.044,6.392-15.232,14.892-15.232S-277-32.844-277-23.8-283.39-8.568-291.89-8.568-306.782-14.756-306.782-23.8Zm74.732-12.784V-18.5c0,6.732-3.536,9.86-8.432,9.86-4.692,0-7.412-2.72-7.412-8.84V-36.584H-258.5v20.672c0,11.288,6.46,16.456,15.64,16.456a14.8,14.8,0,0,0,11.356-4.9V0h10.064V-36.584Zm56.3,18.428c0-11.764-8.3-18.972-19.04-18.972-11.152,0-19.516,7.888-19.516,18.836,0,10.88,8.228,18.836,20.876,18.836,6.6,0,11.7-2.04,15.1-5.916l-5.644-6.12a12.4,12.4,0,0,1-9.18,3.536c-5.576,0-9.452-2.788-10.472-7.344h27.676C-175.882-16.184-175.746-17.34-175.746-18.156ZM-194.718-29.1a8.693,8.693,0,0,1,8.976,7.616h-18.02A8.661,8.661,0,0,1-194.718-29.1Zm72.9-8.024a16.45,16.45,0,0,0-13.192,5.984c-2.584-4.012-6.936-5.984-12.036-5.984-4.692,0-8.772,1.632-11.492,4.76v-4.216h-10.132V0h10.608V-18.36c0-6.528,3.332-9.588,8.024-9.588,4.42,0,6.936,2.72,6.936,8.636V0H-132.5V-18.36c0-6.528,3.332-9.588,8.092-9.588,4.284,0,6.936,2.72,6.936,8.636V0h10.608V-20.944C-106.862-32.1-113.118-37.128-121.822-37.128Zm74.732-13.94H-58.514l-9.18,9.792h8.3Zm4.828,32.912c0-11.764-8.3-18.972-19.04-18.972-11.152,0-19.516,7.888-19.516,18.836C-80.818-7.412-72.59.544-59.942.544c6.6,0,11.7-2.04,15.1-5.916l-5.644-6.12a12.4,12.4,0,0,1-9.18,3.536c-5.576,0-9.452-2.788-10.472-7.344h27.676C-42.4-16.184-42.262-17.34-42.262-18.156ZM-61.234-29.1a8.693,8.693,0,0,1,8.976,7.616h-18.02A8.661,8.661,0,0,1-61.234-29.1ZM-1.19-37.128c-5.848,0-11.764,1.564-15.776,4.42l3.808,7.412a17.59,17.59,0,0,1,10.54-3.4c5.712,0,8.432,2.652,8.432,7.208H-2.618C-13.77-21.488-18.326-17-18.326-10.54c0,6.324,5.1,11.084,13.668,11.084,5.372,0,9.18-1.768,11.152-5.1V0h9.928V-20.876C16.422-31.96,9.962-37.128-1.19-37.128ZM-2.006-6.6c-3.74,0-5.984-1.768-5.984-4.42,0-2.448,1.564-4.284,6.528-4.284H5.814v3.74C4.59-8.228,1.53-6.6-2.006-6.6ZM46,0H80.886V-8.976H57.018V-47.6H46ZM101.49-37.128c-5.848,0-11.764,1.564-15.776,4.42L89.522-25.3a17.59,17.59,0,0,1,10.54-3.4c5.712,0,8.432,2.652,8.432,7.208h-8.432C88.91-21.488,84.354-17,84.354-10.54c0,6.324,5.1,11.084,13.668,11.084,5.372,0,9.18-1.768,11.152-5.1V0H119.1V-20.876C119.1-31.96,112.642-37.128,101.49-37.128ZM100.674-6.6c-3.74,0-5.984-1.768-5.984-4.42,0-2.448,1.564-4.284,6.528-4.284h7.276v3.74C107.27-8.228,104.21-6.6,100.674-6.6Zm50.252-30.532c-4.964,0-9.248,1.7-12.1,4.828v-4.284H128.69V0H139.3V-18.088c0-6.732,3.672-9.86,8.772-9.86,4.692,0,7.412,2.72,7.412,8.636V0H166.09V-20.944C166.09-32.1,159.562-37.128,150.926-37.128Zm51.816-13.328v17.748c-2.652-2.992-6.46-4.42-10.948-4.42-10.336,0-18.292,7.344-18.292,18.836S181.458.544,191.794.544c4.9,0,8.772-1.564,11.424-4.76V0H213.35V-50.456ZM193.63-8.16c-5.3,0-9.384-3.808-9.384-10.132s4.08-10.132,9.384-10.132c5.236,0,9.316,3.808,9.316,10.132S198.866-8.16,193.63-8.16Zm34.816-33.524c3.944,0,6.6-2.584,6.6-6.12,0-3.264-2.652-5.712-6.6-5.712s-6.6,2.584-6.6,5.916S224.5-41.684,228.446-41.684ZM223.142,0H233.75V-36.584H223.142ZM278.9,0,264.758-18.7l13.6-17.884H267.07l-7.956,10.676-7.752-10.676h-11.9l13.6,18.156L238.986,0h11.56l8.3-11.22L266.866,0ZM295.29-16.524h10.268c0-7.208,11.424-8.432,11.424-19.312,0-8.024-7.072-12.58-17.272-12.58-9.18,0-15.572,3.536-19.244,9.112l8.228,4.828a11.516,11.516,0,0,1,9.86-5.032c4.42,0,7.344,2.108,7.344,5.44C305.9-28.152,295.29-26.044,295.29-16.524ZM300.458.544a6.25,6.25,0,0,0,6.528-6.188c0-3.468-2.72-6.052-6.528-6.052s-6.528,2.584-6.528,6.052A6.25,6.25,0,0,0,300.458.544Z" transform="translate(554.934 3545)" opacity="0.3" fill="url(#linear-gradient)"/>
    <text id="Quem_é_a_Landix_" data-name="Quem é a Landix?" transform="translate(555 3564.625)" fill="#fff" font-size="50" font-family="Montserrat-Bold, Montserrat" font-weight="700"><tspan x="-235.725" y="0">Quem é a Landix?</tspan></text>
  </g>
</svg>
